<svg width="50" height="38" viewBox="0 0 50 38" fill="none" xmlns="http://www.w3.org/2000/svg">
<path d="M11.16 0.719999C13.72 0.719999 15.84 1.36 17.52 2.64C19.2 3.83999 20.48 5.48 21.36 7.56C22.24 9.56 22.68 11.8 22.68 14.28C22.68 17.56 22 20.72 20.64 23.76C19.36 26.8 17.56 29.52 15.24 31.92C12.92 34.32 10.28 36.2 7.32 37.56L0.24 31.92C2.4 31.04 4.36 29.96 6.12 28.68C7.96 27.4 9.52 25.96 10.8 24.36C12.08 22.76 13 21.12 13.56 19.44L12.96 19.08C12.56 19.32 12.08 19.56 11.52 19.8C10.96 19.96 10.16 20.04 9.12 20.04C7.84 20.04 6.56 19.72 5.28 19.08C4 18.36 2.92 17.36 2.04 16.08C1.16 14.72 0.72 13.04 0.72 11.04C0.72 8.87999 1.2 7.03999 2.16 5.51999C3.12 4 4.4 2.84 6 2.04C7.6 1.16 9.32 0.719999 11.16 0.719999ZM38.16 0.719999C40.72 0.719999 42.84 1.36 44.52 2.64C46.2 3.83999 47.48 5.48 48.36 7.56C49.24 9.56 49.68 11.8 49.68 14.28C49.68 17.56 49 20.72 47.64 23.76C46.36 26.8 44.56 29.52 42.24 31.92C39.92 34.32 37.28 36.2 34.32 37.56L27.24 31.92C29.4 31.04 31.36 29.96 33.12 28.68C34.96 27.4 36.52 25.96 37.8 24.36C39.08 22.76 40 21.12 40.56 19.44L39.96 19.08C39.56 19.32 39.08 19.56 38.52 19.8C37.96 19.96 37.16 20.04 36.12 20.04C34.84 20.04 33.56 19.72 32.28 19.08C31 18.36 29.92 17.36 29.04 16.08C28.16 14.72 27.72 13.04 27.72 11.04C27.72 8.87999 28.2 7.03999 29.16 5.51999C30.12 4 31.4 2.84 33 2.04C34.6 1.16 36.32 0.719999 38.16 0.719999Z" fill="#FCD54C"/>
</svg>
